<svg width="20" height="20" viewBox="0 0 20 20" fill="none" xmlns="http://www.w3.org/2000/svg">
  <path d="M9.58789 7.25555L12.5481 9.22962C12.6749 9.31418 12.7789 9.42966 12.8508 9.56405C12.9227 9.69844 12.9603 9.8485 12.9603 10.0009C12.9603 10.1533 12.9227 10.3034 12.8508 10.4378C12.7789 10.5722 12.6749 10.6867 12.5481 10.7713L9.58789 12.7454C9.44844 12.8384 9.28636 12.8918 9.11892 12.9C8.95149 12.9081 8.78498 12.8706 8.63718 12.7915C8.48937 12.7125 8.36581 12.5947 8.27967 12.4509C8.19353 12.3071 8.14805 12.1426 8.14807 11.975V8.02777C8.14771 7.85998 8.19295 7.69525 8.27896 7.55118C8.36496 7.4071 8.4885 7.28911 8.63636 7.2098C8.78423 7.1305 8.95086 7.09286 9.11846 7.10092C9.28606 7.10898 9.44831 7.16243 9.58789 7.25555Z" stroke="#7977A6" stroke-linecap="round" stroke-linejoin="round" />
  <path d="M9.99963 2.16675C11.9473 2.16675 13.8205 2.89204 15.2574 4.19312L15.5387 4.46069C17.0077 5.92965 17.8335 7.92234 17.8336 9.99976C17.8336 10.8999 17.6781 11.7927 17.3756 12.6384L17.2369 12.9978C16.8924 13.8295 16.4076 14.5948 15.8043 15.2605L15.5387 15.5388C14.9023 16.1752 14.162 16.6967 13.3502 17.0808L12.9977 17.2371C12.0473 17.6307 11.0283 17.8337 9.99963 17.8337C9.09969 17.8337 8.20751 17.6782 7.36194 17.3757L7.00256 17.2371C6.17088 16.8926 5.4055 16.4077 4.73987 15.8044L4.46057 15.5388C3.82428 14.9024 3.30262 14.1621 2.91858 13.3503L2.76331 12.9978C2.36964 12.0474 2.16663 11.0284 2.16663 9.99976C2.16671 8.05231 2.89209 6.17976 4.19299 4.74292L4.46057 4.46069C5.92953 2.99174 7.92222 2.16683 9.99963 2.16675Z" stroke="#7977A6" stroke-linecap="round" stroke-linejoin="round" />
</svg>