<svg width="24" height="24" viewBox="0 0 24 24" fill="none" xmlns="http://www.w3.org/2000/svg">
<path d="M19 7L17.657 8.343M17.657 8.343C16.1567 6.84267 14.1218 5.99979 12 5.99979C9.87824 5.99979 7.84335 6.84267 6.34302 8.343C4.84269 9.84333 3.99982 11.8782 3.99982 14C3.99982 16.1218 4.84269 18.1567 6.34302 19.657C7.84335 21.1573 9.87824 22.0002 12 22.0002C14.1218 22.0002 16.1567 21.1573 17.657 19.657C19.1574 18.1567 20.0002 16.1218 20.0002 14C20.0002 11.8782 19.1574 9.84333 17.657 8.343ZM12 10V14M9.00002 3H15" stroke="#7977A6" stroke-width="1.2" stroke-linecap="round" stroke-linejoin="round"/>
</svg>
