<svg width="74" height="74" viewBox="0 0 74 74" fill="none" xmlns="http://www.w3.org/2000/svg">
<g clip-path="url(#clip0_2198_10546)">
<rect width="74" height="74" rx="37" fill="#2A2245"/>
<path fill-rule="evenodd" clip-rule="evenodd" d="M37 71.8122C55.9084 71.8122 71.2368 56.4223 71.2368 37.4379C71.2368 18.4535 55.9084 3.06357 37 3.06357C18.0915 3.06357 2.76317 18.4535 2.76317 37.4379C2.76317 56.4223 18.0915 71.8122 37 71.8122ZM37 72.4637C56.2668 72.4637 71.8857 56.7821 71.8857 37.4379C71.8857 18.0936 56.2668 2.41205 37 2.41205C17.7331 2.41205 2.11426 18.0936 2.11426 37.4379C2.11426 56.7821 17.7331 72.4637 37 72.4637Z" fill="#FFC805"/>
<path fill-rule="evenodd" clip-rule="evenodd" d="M35.5464 70.0608C54.4549 70.0608 69.7832 54.6709 69.7832 35.6865C69.7832 16.7021 54.4549 1.31223 35.5464 1.31223C16.638 1.31223 1.30962 16.7021 1.30962 35.6865C1.30962 54.6709 16.638 70.0608 35.5464 70.0608ZM35.5464 70.7124C54.8133 70.7124 70.4321 55.0308 70.4321 35.6865C70.4321 16.3423 54.8133 0.660706 35.5464 0.660706C16.2796 0.660706 0.660706 16.3423 0.660706 35.6865C0.660706 55.0308 16.2796 70.7124 35.5464 70.7124Z" fill="#FFC805"/>
<path fill-rule="evenodd" clip-rule="evenodd" d="M38.4535 70.9364C57.362 70.9364 72.6903 55.5465 72.6903 36.5621C72.6903 17.5777 57.362 2.18784 38.4535 2.18784C19.5451 2.18784 4.21673 17.5777 4.21673 36.5621C4.21673 55.5465 19.5451 70.9364 38.4535 70.9364ZM38.4535 71.588C57.7204 71.588 73.3392 55.9064 73.3392 36.5621C73.3392 17.2179 57.7204 1.53632 38.4535 1.53632C19.1867 1.53632 3.56781 17.2179 3.56781 36.5621C3.56781 55.9064 19.1867 71.588 38.4535 71.588Z" fill="#FFC805"/>
<path fill-rule="evenodd" clip-rule="evenodd" d="M35.5464 72.6878C54.4549 72.6878 69.7832 57.2979 69.7832 38.3135C69.7832 19.3291 54.4549 3.93915 35.5464 3.93915C16.638 3.93915 1.30962 19.3291 1.30962 38.3135C1.30962 57.2979 16.638 72.6878 35.5464 72.6878ZM35.5464 73.3393C54.8133 73.3393 70.4321 57.6577 70.4321 38.3135C70.4321 18.9692 54.8133 3.28763 35.5464 3.28763C16.2796 3.28763 0.660706 18.9692 0.660706 38.3135C0.660706 57.6577 16.2796 73.3393 35.5464 73.3393Z" fill="#FFC805"/>
<circle cx="37" cy="37" r="3.89349" fill="#FFC805"/>
</g>
<defs>
<clipPath id="clip0_2198_10546">
<rect width="74" height="74" rx="37" fill="white"/>
</clipPath>
</defs>
</svg>
